<?xml version="1.0" encoding="iso-8859-1"?>
<!-- Uploaded to: SVG Repo, www.svgrepo.com, Generator: SVG Repo Mixer Tools -->
<svg fill="#000000" height="800px" width="800px" version="1.1" id="Layer_1" xmlns="http://www.w3.org/2000/svg" xmlns:xlink="http://www.w3.org/1999/xlink" 
	 viewBox="0 0 512 512" xml:space="preserve">
<g>
	<g>
		<path d="M395.539,189.691c-19.908-25.487-42.46-46.964-65.215-62.107c-8.21-5.463-16.34-10.054-24.371-13.786
			c8.143-7.262,16.09-16.364,23.814-27.301c15.578-22.056,24.664-43.902,25.043-44.822c3.297-7.991-0.08-17.175-7.767-21.128
			s-17.122-1.357-21.704,5.975c-6.962,11.138-16.651,13.933-23.553,14.317c-11.944,0.663-24.079-5.251-32.45-15.824
			C256.752,9.118,236.848,0,214.73,0s-42.022,9.118-54.607,25.013c-3.738,4.721-4.631,11.095-2.333,16.661
			c0.379,0.919,9.465,22.765,25.043,44.822c7.72,10.93,15.662,20.028,23.8,27.289c-8.097,3.758-16.294,8.385-24.57,13.899
			c-22.822,15.202-45.438,36.763-65.406,62.352c-42.166,54.037-67.34,118.482-67.34,172.39c0,44.349,15.787,79.883,46.927,105.616
			C131.563,497.21,185.412,512,256.298,512c70.631,0,124.317-14.91,159.567-44.315c31.068-25.918,46.82-61.672,46.82-106.267
			C462.684,307.717,437.583,243.52,395.539,189.691z M193.29,39.266c5.918-3.848,13.432-6.01,21.44-6.01
			c11.719,0,22.386,4.636,28.532,12.4c13.715,17.324,33.636,27.671,54.239,28.441c-11.906,15.155-26.394,27.749-41.202,27.749
			C230.138,101.846,204.971,62.527,193.29,39.266z M394.561,442.148c-29.111,24.282-75.629,36.596-138.264,36.596
			c-62.951,0-109.675-12.228-138.874-36.341c-23.126-19.112-34.852-46.02-34.852-79.978c0-46.744,22.543-103.541,60.303-151.932
			c36.285-46.503,79.747-75.392,113.423-75.392c33.558,0,76.871,28.762,113.034,75.062c37.631,48.178,60.098,104.722,60.098,151.255
			C429.429,395.685,417.697,422.847,394.561,442.148z"/>
	</g>
</g>
<g>
	<g>
		<path d="M264.274,302.615c-17.444-9.221-35.484-18.757-35.484-29.641c0-15.281,12.431-27.713,27.713-27.713
			c15.281,0,27.713,12.432,27.713,27.713c0,9.183,7.445,16.628,16.628,16.628c9.183,0,16.628-7.445,16.628-16.628
			c0-27.854-18.782-51.387-44.341-58.645v-7.866c0-9.183-7.445-16.628-16.628-16.628c-9.183,0-16.628,7.445-16.628,16.628v7.866
			c-25.559,7.258-44.341,30.792-44.341,58.645c0,30.922,29.497,46.514,53.198,59.042c17.445,9.221,35.484,18.756,35.484,29.64
			c0,15.281-12.432,27.713-27.713,27.713c-15.281,0-27.713-12.432-27.713-27.713c0-9.183-7.445-16.628-16.628-16.628
			c-9.183,0-16.628,7.445-16.628,16.628c0,27.854,18.782,51.387,44.341,58.645v7.866c0,9.183,7.445,16.628,16.628,16.628
			c9.183,0,16.628-7.445,16.628-16.628v-7.866c25.559-7.258,44.341-30.792,44.341-58.645
			C317.472,330.735,287.975,315.144,264.274,302.615z"/>
	</g>
</g>
</svg>